<?xml version="1.0" encoding="UTF-8" standalone="no"?>
<svg
   id="svg40"
   width="512.00012"
   height="394.27094"
   version="1.1"
   viewBox="0 0 512.00012 394.27094"
   sodipodi:docname="libera.svg"
   inkscape:version="1.1 (c68e22c387, 2021-05-23)"
   xmlns:inkscape="http://www.inkscape.org/namespaces/inkscape"
   xmlns:sodipodi="http://sodipodi.sourceforge.net/DTD/sodipodi-0.dtd"
   xmlns="http://www.w3.org/2000/svg"
   xmlns:svg="http://www.w3.org/2000/svg"
   xmlns:rdf="http://www.w3.org/1999/02/22-rdf-syntax-ns#"
   xmlns:cc="http://creativecommons.org/ns#"
   xmlns:dc="http://purl.org/dc/elements/1.1/">
  <defs
     id="defs3407" />
  <sodipodi:namedview
     id="namedview3405"
     pagecolor="#505050"
     bordercolor="#ffffff"
     borderopacity="1"
     inkscape:pageshadow="0"
     inkscape:pageopacity="0"
     inkscape:pagecheckerboard="1"
     showgrid="false"
     fit-margin-top="0"
     fit-margin-left="0"
     fit-margin-right="0"
     fit-margin-bottom="0"
     scale-x="1"
     inkscape:zoom="1.836871"
     inkscape:cx="172.84828"
     inkscape:cy="88.465655"
     inkscape:window-width="2519"
     inkscape:window-height="1046"
     inkscape:window-x="1961"
     inkscape:window-y="1"
     inkscape:window-maximized="1"
     inkscape:current-layer="svg40" />
  <metadata
     id="metadata46">
    <rdf:RDF>
      <cc:Work
         rdf:about="">
        <dc:format>image/svg+xml</dc:format>
        <dc:type
           rdf:resource="http://purl.org/dc/dcmitype/StillImage" />
        <dc:title>Libera Chat logo</dc:title>
      </cc:Work>
    </rdf:RDF>
  </metadata>
  <title
     id="title2">Libera Chat logo</title>
  <path
     id="path28"
     d="m 206.42317,0.2718241 -0.0803,0.0129646 c -0.47191,0.0924807 -0.94339,0.18712215 -1.41487,0.28219575 -0.47105,0.0946415 -0.94209,0.19187583 -1.41271,0.2891102 -0.47105,0.0976665 -0.94209,0.19749385 -1.41271,0.29775325 -0.47018,0.099827 -0.94036,0.2022475 -1.41011,0.3046677 -0.46975,0.1019881 -0.93907,0.206569 -1.40795,0.31115 -0.46889,0.1050131 -0.93734,0.2126192 -1.4058,0.3202252 -0.46888,0.1080382 -0.93734,0.2186693 -1.40536,0.3293004 -0.46802,0.1101989 -0.93561,0.2225587 -1.4032,0.3357827 -0.46715,0.113224 -0.93431,0.2286088 -1.40104,0.3448579 -0.46672,0.1153848 -0.93258,0.2329303 -1.39844,0.3513402 -0.46586,0.1184098 -0.93129,0.2389805 -1.39629,0.3604154 -0.465,0.1205706 -0.92956,0.243302 -1.39412,0.3668977 -0.465,0.1231635 -0.92956,0.2476235 -1.3937,0.37338 -0.46326,0.1266207 -0.92653,0.2554022 -1.38937,0.3846159 -0.46327,0.1283494 -0.92653,0.2579952 -1.38937,0.3889375 -0.46283,0.1318066 -0.92481,0.2640453 -1.38678,0.3980127 -0.4611,0.1339674 -0.92178,0.2700955 -1.38245,0.4066557 -0.46111,0.1369925 -0.92179,0.274417 -1.38203,0.4135702 -0.45981,0.1387211 -0.91875,0.2787386 -1.3777,0.4200525 -0.45981,0.1417461 -0.91876,0.2847887 -1.3777,0.4291277 -0.45809,0.1439069 -0.91574,0.2891102 -1.37295,0.43561 -0.45809,0.1469319 -0.91574,0.2951603 -1.37295,0.4451173 -0.45636,0.1495249 -0.91271,0.299914 -1.3682,0.4515997 -0.45592,0.1525499 -0.91098,0.3059641 -1.36603,0.4606748 -0.45506,0.1542785 -0.90968,0.3102857 -1.36388,0.4671571 -0.45419,0.1564393 -0.90795,0.3146073 -1.36128,0.4740718 -0.45333,0.159896 -0.90665,0.320657 -1.35912,0.482715 -0.45203,0.162057 -0.90363,0.324978 -1.3548,0.489629 -0.45203,0.165082 -0.90363,0.331029 -1.35436,0.498272 -0.45031,0.167243 -0.90061,0.335782 -1.35005,0.505186 -0.44901,0.169404 -0.89758,0.340105 -1.34529,0.511669 -0.44901,0.172429 -0.89715,0.346155 -1.34529,0.520744 -0.44728,0.175022 -0.89456,0.350044 -1.34097,0.527227 -0.44685,0.177182 -0.89283,0.354365 -1.33838,0.53414 -0.27662,0.111928 -0.55316,0.225152 -0.8293,0.338376 24.5506,81.287934 49.09255,162.619084 73.63883,243.907024 l 11.32672,-13.25413 z M 304.30577,0 l -26.80212,205.48864 21.69407,-25.38465 4.30813,6.9058 48.09861,-173.250046 c -0.3937,-0.157304 -0.78782,-0.312447 -1.18237,-0.467589 -0.44685,-0.175022 -0.8937,-0.34918 -1.34141,-0.521609 -0.44814,-0.172861 -0.89671,-0.344426 -1.34572,-0.514694 -0.44944,-0.1707 -0.89974,-0.340104 -1.35005,-0.508211 -0.44943,-0.167676 -0.89974,-0.334054 -1.35004,-0.499137 -0.45117,-0.165514 -0.90277,-0.3293 -1.35437,-0.492222 -0.45246,-0.163354 -0.90536,-0.324979 -1.35869,-0.485739 -0.45246,-0.159897 -0.90536,-0.3189293 -1.35868,-0.4766651 -0.45376,-0.1577357 -0.90839,-0.3146072 -1.36301,-0.46975 -0.45463,-0.1547107 -0.90969,-0.3085571 -1.36517,-0.4606749 -0.45549,-0.1529821 -0.91098,-0.3038034 -1.36734,-0.4541925 -0.45678,-0.1503892 -0.914,-0.2994819 -1.37165,-0.4472781 -0.45678,-0.1473641 -0.914,-0.2934318 -1.37165,-0.4386351 -0.45808,-0.1456355 -0.91703,-0.2891102 -1.37598,-0.4317206 -0.45894,-0.1421783 -0.91832,-0.2830601 -1.37813,-0.4226454 -0.45981,-0.1395853 -0.92005,-0.2787385 -1.3803,-0.4157309 -0.46067,-0.1374246 -0.92135,-0.2744171 -1.38245,-0.4092487 -0.46111,-0.1343995 -0.92265,-0.2683669 -1.38462,-0.4001735 -0.46197,-0.1322387 -0.92438,-0.2640453 -1.38678,-0.3936911 -0.46327,-0.1292137 -0.92697,-0.2579952 -1.3911,-0.384616 -0.46327,-0.1270529 -0.92697,-0.2536737 -1.3911,-0.3781337 -0.46413,-0.1240278 -0.9287,-0.2476235 -1.39326,-0.3690584 -0.465,-0.1218671 -0.92999,-0.2428699 -1.39542,-0.362144 -0.46629,-0.118842 -0.93302,-0.2372519 -1.39974,-0.3530688 -0.4663,-0.1166813 -0.93302,-0.2324982 -1.39975,-0.3461544 -0.46715,-0.1145205 -0.93431,-0.2281766 -1.4019,-0.3396721 -0.46759,-0.1106311 -0.93561,-0.22083 -1.40406,-0.3284361 -0.46759,-0.1093346 -0.93561,-0.2169406 -1.40407,-0.3236824 -0.46932,-0.1063096 -0.93863,-0.2117548 -1.40838,-0.3150393 -0.46975,-0.1032845 -0.93994,-0.2052726 -1.41055,-0.3059642 -0.46975,-0.1011237 -0.93993,-0.2013832 -1.41055,-0.29948188 -0.47061,-0.098963 -0.94123,-0.19619736 -1.4127,-0.29256742 -0.47148,-0.0959379 -0.94296,-0.19014722 -1.41487,-0.28349221 -0.47105,-0.0929128 -0.94296,-0.18452923 -1.41444,-0.27484916 z M 73.492979,71.175559 c -0.278134,0.279171 -0.555749,0.558774 -0.832326,0.839241 -0.335826,0.3414 -0.670702,0.683665 -1.004756,1.026795 -0.333578,0.342265 -0.666379,0.684962 -0.99784,1.028955 -0.332067,0.344858 -0.663355,0.691013 -0.99352,1.038031 -0.329819,0.346587 -0.6586,0.694038 -0.986604,1.042353 -0.327615,0.347883 -0.65428,0.69663 -0.979691,1.046674 -0.326059,0.350389 -0.651254,0.701384 -0.975368,1.053156 -0.323856,0.351643 -0.646501,0.704409 -0.968455,1.057478 -0.322342,0.35389 -0.643475,0.70873 -0.964133,1.064392 -0.31936,0.355359 -0.637857,0.711756 -0.955057,1.068714 -0.317848,0.356829 -0.634833,0.714348 -0.950304,1.073035 -0.315601,0.359033 -0.630079,0.719102 -0.943822,1.07995 -0.314088,0.360545 -0.627053,0.722127 -0.939068,1.084271 -0.311841,0.362749 -0.622732,0.726449 -0.932585,1.090754 -0.309551,0.364218 -0.617979,0.729474 -0.925671,1.095075 -0.307348,0.365688 -0.613657,0.732067 -0.918757,1.099397 -0.305792,0.367891 -0.610632,0.73682 -0.914436,1.106311 -0.302852,0.369361 -0.604581,0.739413 -0.90536,1.110632 -0.301383,0.370831 -0.601556,0.742439 -0.901038,1.114954 -0.299093,0.3723 -0.597235,0.745464 -0.894124,1.119276 -0.296846,0.374504 -0.592482,0.749785 -0.88721,1.12619 -0.295333,0.376016 -0.589456,0.75281 -0.882888,1.130512 -0.292351,0.377442 -0.583838,0.755835 -0.873813,1.134833 -0.290838,0.378998 -0.580813,0.75886 -0.869491,1.139155 -0.287857,0.381201 -0.574763,0.763181 -0.860416,1.146069 -0.286345,0.382628 -0.571738,0.766207 -0.855663,1.15039 -0.284097,0.384141 -0.566984,0.769238 -0.84918,1.154718 -0.281893,0.38557 -0.562663,0.77182 -0.842266,1.15903 -0.279602,0.38708 -0.558341,0.77485 -0.835351,1.16336 -0.277355,0.38855 -0.553588,0.77787 -0.828869,1.16811 -0.275108,0.39001 -0.549266,0.7809 -0.821954,1.17243 -0.272862,0.39222 -0.544513,0.78522 -0.815473,1.17891 -0.270657,0.39296 -0.540191,0.78652 -0.808557,1.18107 -0.268367,0.39516 -0.535438,0.79127 -0.801644,1.18756 -0.266163,0.39589 -0.531116,0.79257 -0.795161,1.18972 l -0.04844,0.0743 140.579292,153.6303 10.6396,-13.84185 0.49136,0.21141 z M 435.76664,68.338476 331.79068,232.34045 343.62303,251.30764 469.46591,108.78366 c -0.23077,-0.34534 -0.4624,-0.69015 -0.6949,-1.03458 -0.2675,-0.39507 -0.5363,-0.78954 -0.8064,-1.1828 -0.26966,-0.39429 -0.54062,-0.78781 -0.81288,-1.18064 -0.27182,-0.39205 -0.54538,-0.78349 -0.81936,-1.17373 -0.27398,-0.39053 -0.5497,-0.78046 -0.82628,-1.1694 -0.27657,-0.38976 -0.55402,-0.77874 -0.83275,-1.16681 -0.27874,-0.38756 -0.55835,-0.77442 -0.83925,-1.16033 -0.28089,-0.386 -0.56309,-0.771402 -0.84615,-1.155585 -0.28306,-0.384487 -0.56742,-0.768368 -0.85264,-1.151255 -0.28522,-0.383017 -0.57174,-0.765343 -0.85955,-1.146502 -0.28781,-0.381461 -0.57649,-0.762317 -0.86603,-1.142179 -0.28998,-0.379258 -0.58082,-0.757564 -0.87252,-1.135266 -0.29214,-0.378479 -0.58513,-0.756267 -0.87943,-1.133104 -0.29343,-0.376232 -0.58816,-0.751514 -0.88375,-1.12619 -0.29646,-0.374677 -0.59421,-0.748489 -0.89283,-1.121437 -0.29819,-0.373207 -0.5968,-0.745463 -0.89715,-1.117115 -0.30035,-0.371651 -0.60156,-0.742438 -0.90363,-1.112361 -0.30337,-0.370139 -0.60718,-0.739413 -0.91271,-1.108039 -0.30467,-0.367892 -0.6102,-0.735092 -0.91703,-1.101126 -0.30639,-0.366379 -0.61322,-0.732067 -0.92135,-1.096803 -0.30899,-0.36491 -0.61927,-0.729042 -0.92999,-1.09205 -0.31158,-0.36262 -0.6236,-0.724288 -0.93691,-1.085136 -0.31287,-0.36115 -0.62662,-0.721263 -0.94122,-1.080814 -0.31504,-0.359638 -0.63095,-0.718238 -0.94815,-1.07606 -0.3172,-0.357391 -0.63526,-0.713917 -0.95462,-1.069579 -0.3185,-0.356612 -0.63829,-0.712187 -0.95895,-1.066985 -0.32066,-0.353587 -0.64261,-0.706137 -0.96543,-1.058342 -0.32282,-0.352853 -0.64736,-0.704841 -0.97234,-1.055749 -0.32541,-0.350649 -0.65169,-0.700087 -0.97883,-1.049267 -0.32757,-0.348315 -0.65601,-0.695766 -0.98531,-1.042352 -0.32887,-0.346587 -0.65903,-0.692741 -0.99006,-1.037599 -0.3306,-0.344858 -0.66206,-0.689716 -0.99438,-1.033277 -0.33319,-0.342698 -0.66768,-0.685395 -1.00303,-1.026363 -0.33492,-0.341401 -0.6707,-0.681937 -1.00778,-1.022041 -0.33708,-0.33924 -0.67502,-0.677616 -1.01426,-1.015127 -0.33881,-0.337512 -0.67805,-0.674591 -1.01859,-1.010373 -0.31806,-0.313311 -0.63742,-0.625758 -0.95765,-0.93734 z M 4.6942595,200.44758 c -0.091314,0.4624 -0.1813313,0.92481 -0.2700091,1.38764 -0.08911,0.46759 -0.1768801,0.93518 -0.2633539,1.4032 -0.086085,0.46802 -0.1708732,0.93648 -0.2542354,1.40536 -0.083924,0.46802 -0.1664653,0.93648 -0.2477532,1.40493 -0.080899,0.46889 -0.1604151,0.93777 -0.238678,1.40709 -0.078695,0.46975 -0.1561368,0.9395 -0.2321525,1.40925 -0.07567,0.46975 -0.1500866,0.9395 -0.2230772,1.40925 -0.072645,0.47018 -0.1439933,0.9408 -0.2139588,1.41141 -0.070484,0.47105 -0.1396718,0.94209 -0.2074766,1.41357 -0.067459,0.47105 -0.1336216,0.9421 -0.1984013,1.41357 -0.065298,0.47105 -0.1293001,0.9421 -0.1919191,1.41358 -0.062273,0.47148 -0.1232499,0.94339 -0.1828006,1.41573 -0.059248,0.47234 -0.1171566,0.94512 -0.1737254,1.41789 -0.057087,0.47235 -0.1128351,0.94512 -0.1672431,1.41746 -0.054062,0.47235 -0.106785,0.94469 -0.1581679,1.41746 -0.050994,0.47321 -0.1007348,0.94642 -0.1490495,1.41963 -0.048833,0.4732 -0.096413,0.94641 -0.1425672,1.41962 -0.046543,0.47364 -0.091789,0.94771 -0.1356527,1.42178 -0.042783,0.47364 -0.0846156,0.94771 -0.12484895,1.42178 -0.0406224,0.47364 -0.0799483,0.94771 -0.11793449,1.42135 -0.0384616,0.47451 -0.0756267,0.94901 -0.11140898,1.42351 -0.0350044,0.47451 -0.0681505,0.94901 -0.10017301,1.42352 -0.0332758,0.4745 -0.0649526,0.949 -0.0954193,1.42351 -0.0293864,0.47493 -0.0574763,0.9503 -0.0841834,1.42567 -0.0272256,0.47493 -0.0531548,0.9503 -0.0777011,1.42567 -0.0242006,0.47494 -0.0471047,0.9503 -0.0686259,1.42567 -0.0220398,0.47494 -0.0427831,0.95031 -0.0621436,1.42524 -0.0190147,0.47494 -0.036733,0.95031 -0.0530684,1.42524 -0.0159896,0.4758 -0.0306828,0.9516 -0.0439499,1.4274 -0.01382889,0.47494 -0.02636132,0.94987 -0.03759729,1.42524 -0.01080382,0.4758 -0.02031118,0.9516 -0.02852208,1.4274 -0.0077787,0.4758 -0.01339674,0.9516 -0.01858257,1.42697 -0.0060501,0.4758 -0.01080382,0.9516 -0.01426104,1.42697 C 0.00234659,247.70694 8.64306e-4,248.18231 0,248.65811 c 2.8522082e-4,0.34213 0.00124892,0.68453 0.0029516,1.02636 l 149.7841484,56.35272 11.6638,-15.1772 z m 503.4579605,4.38635 -142.69684,81.50401 11.19708,17.94298 135.26382,-49.26541 0.0173,-0.7338 c 0.013,-0.47493 0.0216,-0.94987 0.0303,-1.42481 0.009,-0.4758 0.0173,-0.9516 0.0173,-1.42696 0.009,-0.4758 0.013,-0.9516 0.013,-1.42697 0.003,-0.4758 0.009,-0.95117 0.004,-1.42697 l -0.003,-1.42697 c -0.003,-0.47623 -0.009,-0.9529 -0.013,-1.42913 -0.004,-0.30263 -0.009,-0.60544 -0.013,-0.90795 -0.009,-0.47537 -0.013,-0.95117 -0.0259,-1.42654 -0.009,-0.47537 -0.0173,-0.95117 -0.0346,-1.42653 l -0.0432,-1.42654 c -0.013,-0.47537 -0.0303,-0.95074 -0.0506,-1.42654 l -0.0549,-1.4261 c -0.0216,-0.4745 -0.0454,-0.94944 -0.0674,-1.42394 -0.0216,-0.47537 -0.0497,-0.95074 -0.0739,-1.42611 l -0.0808,-1.42394 c -0.0302,-0.47537 -0.0601,-0.95074 -0.092,-1.42567 -0.0303,-0.47451 -0.0631,-0.94901 -0.0964,-1.42351 -0.0346,-0.47451 -0.0704,-0.94901 -0.1076,-1.42352 -0.0346,-0.47363 -0.0748,-0.94771 -0.11409,-1.42135 -0.0389,-0.4745 -0.0808,-0.949 -0.12316,-1.42307 -0.0389,-0.47364 -0.0856,-0.94728 -0.13008,-1.42092 -0.0441,-0.47321 -0.0925,-0.94599 -0.14088,-1.41876 -0.0484,-0.47364 -0.0959,-0.94728 -0.14564,-1.42092 -0.0506,-0.47277 -0.10328,-0.94555 -0.15687,-1.41832 -0.0527,-0.47278 -0.10761,-0.94555 -0.16335,-1.41833 -0.0553,-0.47234 -0.11236,-0.94425 -0.17027,-1.41616 -0.0579,-0.47235 -0.11798,-0.94426 -0.17891,-1.41574 -0.0614,-0.47191 -0.12403,-0.94425 -0.18799,-1.41573 -0.0644,-0.47148 -0.13008,-0.94252 -0.19706,-1.41357 -0.0666,-0.47148 -0.1344,-0.94253 -0.20355,-1.41357 -0.0687,-0.47062 -0.13915,-0.9408 -0.21045,-1.41098 -0.0722,-0.47062 -0.1465,-0.9408 -0.22127,-1.41098 -0.0739,-0.46975 -0.14952,-0.9395 -0.22601,-1.40882 -0.0778,-0.46975 -0.15644,-0.93907 -0.23725,-1.40838 -0.0799,-0.46889 -0.1612,-0.93778 -0.24374,-1.40623 l -0.0432,-0.23211 z M 20.683911,348.30865 c 0.165645,0.38245 0.33224,0.76447 0.500001,1.14606 0.192006,0.43691 0.385308,0.87295 0.579949,1.30856 0.193518,0.43518 0.388289,0.86993 0.584271,1.30381 0.1965,0.43388 0.394166,0.8669 0.592913,1.29948 0.198704,0.43388 0.398618,0.8669 0.599828,1.29949 0.201643,0.43141 0.404582,0.86214 0.608471,1.29256 0.20389,0.43138 0.409033,0.86215 0.615386,1.29257 0.206094,0.42913 0.413441,0.85783 0.621868,1.28566 0.209075,0.42835 0.419361,0.85609 0.630943,1.28349 0.211279,0.42757 0.423812,0.8548 0.637425,1.2809 0.213527,0.4261 0.428264,0.85177 0.64434,1.27658 0.215731,0.42533 0.432585,0.85005 0.650822,1.27399 0.218712,0.42381 0.438635,0.84702 0.659897,1.26966 0.22096,0.4223 0.442957,0.844 0.66638,1.26491 0.223207,0.42153 0.44771,0.84227 0.673294,1.26275 0.225367,0.42006 0.452032,0.83924 0.679776,1.258 0.228393,0.41854 0.458082,0.83622 0.688852,1.25368 0.230553,0.41771 0.462403,0.83491 0.695333,1.25151 0.232801,0.41625 0.466725,0.83189 0.701816,1.24676 0.235005,0.41474 0.471047,0.82887 0.708731,1.24201 0.237987,0.41322 0.477097,0.82584 0.717374,1.23768 0.239455,0.41245 0.480121,0.82412 0.721695,1.23553 0.242437,0.41093 0.486172,0.82109 0.73077,1.23077 0.244642,0.40946 0.490493,0.81806 0.737253,1.22602 0.246888,0.40864 0.494815,0.81677 0.744167,1.22385 0.249093,0.4064 0.499136,0.81202 0.750649,1.21695 0.252031,0.40561 0.505187,0.81071 0.759725,1.21478 0.253544,0.4041 0.508211,0.80769 0.764046,1.21046 0.256526,0.40259 0.514261,0.80466 0.773121,1.2057 0.257952,0.40108 0.517287,0.80165 0.777443,1.20139 0.260934,0.39957 0.522905,0.79862 0.786086,1.19663 0.263181,0.3981 0.527658,0.79559 0.793,1.19188 0.265385,0.39654 0.53198,0.79256 0.799483,1.18755 0.267632,0.39503 0.536301,0.78954 0.806397,1.1828 0.269793,0.3943 0.540623,0.78782 0.812879,1.18064 0.27204,0.39201 0.545377,0.7835 0.819362,1.17373 0.274287,0.39054 0.549698,0.78047 0.826276,1.16941 l 0.06102,0.0841 43.993151,-9.75801 0.873812,-1.14823 -1.044945,0.007 27.307729,-35.53592 z m 384.313449,1.35955 21.19277,35.19452 39.52469,8.91963 c 0.0981,-0.13824 0.19663,-0.27653 0.29473,-0.41495 0.27528,-0.39071 0.54927,-0.7822 0.82196,-1.17459 0.27312,-0.39149 0.54451,-0.78393 0.81547,-1.17675 0.27139,-0.39292 0.54149,-0.78652 0.81072,-1.18108 0.26836,-0.3952 0.53543,-0.79127 0.80164,-1.18755 0.26621,-0.39663 0.53112,-0.79387 0.79516,-1.19231 0.26405,-0.39741 0.5268,-0.7956 0.78825,-1.19447 0.26188,-0.39957 0.52204,-0.79992 0.78133,-1.20096 0.25972,-0.40026 0.51772,-0.80121 0.77485,-1.20311 0.25756,-0.40251 0.51297,-0.80596 0.76794,-1.20959 0.25453,-0.40325 0.50864,-0.80727 0.76145,-1.21176 0.25194,-0.40467 0.50259,-0.81029 0.75238,-1.21608 0.25021,-0.40696 0.49957,-0.81461 0.74762,-1.22299 0.24806,-0.40765 0.49525,-0.81591 0.74114,-1.22515 0.24503,-0.40912 0.4892,-0.81893 0.73207,-1.22948 0.24373,-0.41063 0.48617,-0.82195 0.72775,-1.23379 0.2407,-0.41137 0.48012,-0.82326 0.71867,-1.23596 0.23854,-0.41357 0.4758,-0.82757 0.71175,-1.24244 0.23596,-0.41426 0.47105,-0.8293 0.70527,-1.2446 0.2338,-0.41577 0.46673,-0.83233 0.69836,-1.24935 0.23077,-0.4172 0.46068,-0.83492 0.68929,-1.25368 0.22947,-0.41871 0.45765,-0.83794 0.68496,-1.258 0.22645,-0.4194 0.45203,-0.83924 0.67589,-1.26015 0.22428,-0.42088 0.44727,-0.84227 0.66897,-1.26448 0.22212,-0.42239 0.44295,-0.84529 0.66249,-1.2688 0.2191,-0.42308 0.4369,-0.84659 0.65341,-1.27096 0.21738,-0.42455 0.43388,-0.84962 0.6491,-1.27529 0.21434,-0.42601 0.42783,-0.85263 0.64002,-1.28003 0.21175,-0.42675 0.42178,-0.85394 0.63094,-1.2822 0.21002,-0.42822 0.41919,-0.85696 0.62662,-1.28652 0.207,-0.42969 0.41314,-0.85998 0.61755,-1.29084 0.20484,-0.43038 0.40795,-0.86128 0.61063,-1.293 0.20268,-0.43189 0.40363,-0.86431 0.60415,-1.29732 0.20052,-0.43259 0.39931,-0.86561 0.59723,-1.29949 0.1975,-0.43345 0.39326,-0.86733 0.58816,-1.30164 l 0.009,-0.0134 z"
     fill="#5555ff"
     style="stroke-width:1;paint-order:markers fill stroke" />
  <g
     id="g36"
     transform="matrix(4.3215276,0,0,4.3215276,-140.25323,509.34776)"
     fill="#ff55dd"
     style="stroke-width:0.2314">
    <path
       id="path30"
       d="m 102.4,-77.66 -17.25,19.7 -7.897,-3.488 -25.66,32.99 2.235,0.0024 c 0,0 15.98,-20.43 24,-30.71 l 7.819,3.455 16.48,-18.83 c 9.127,15.53 18.97,30.48 27.93,46.1 l 2.227,-0.01328 z"
       color="#000000"
       style="stroke-width:0.0535458" />
    <path
       id="path32"
       d="m 102.1,-71.77 -16.02,18.37 -7.826,-3.25 -22.13,28.18 2.445,0.01543 20.28,-25.94 7.76,3.22 15.22,-17.45 23.94,40.24 2.37,-0.04577 z"
       color="#000000"
       style="stroke-width:0.0535458" />
    <path
       id="path34"
       d="m 60.94,-28.49 18.48,-23.56 7.918,3.219 14.38,-16.52 21.59,36.89 z"
       stroke-width="0" />
  </g>
</svg>
