<?xml version="1.0" encoding="UTF-8" standalone="no"?>
<svg
   xmlns:dc="http://purl.org/dc/elements/1.1/"
   xmlns:cc="http://creativecommons.org/ns#"
   xmlns:rdf="http://www.w3.org/1999/02/22-rdf-syntax-ns#"
   xmlns:svg="http://www.w3.org/2000/svg"
   xmlns="http://www.w3.org/2000/svg"
   xmlns:sodipodi="http://sodipodi.sourceforge.net/DTD/sodipodi-0.dtd"
   xmlns:inkscape="http://www.inkscape.org/namespaces/inkscape"
   inkscape:export-ydpi="96"
   inkscape:export-xdpi="96"
   inkscape:export-filename="/home/trevor/longterm/lunar/lunar-website/assets/images/logo-01.png"
   width="1489.5007"
   height="567.88031"
   viewBox="0 0 1489.5007 567.88031"
   version="1.1"
   id="svg8"
   inkscape:version="1.0.2 (e86c870879, 2021-01-15)"
   sodipodi:docname="lunar_logo-01-full.svg">
  <defs
     id="defs2" />
  <sodipodi:namedview
     fit-margin-bottom="0"
     fit-margin-right="0"
     fit-margin-left="0"
     fit-margin-top="0"
     id="base"
     pagecolor="#ffffff"
     bordercolor="#666666"
     borderopacity="1.0"
     inkscape:pageopacity="0.0"
     inkscape:pageshadow="2"
     inkscape:zoom="0.35"
     inkscape:cx="1088.6155"
     inkscape:cy="358.4147"
     inkscape:document-units="px"
     inkscape:current-layer="layer1"
     inkscape:document-rotation="0"
     showgrid="false"
     units="px"
     showborder="false"
     inkscape:window-width="2519"
     inkscape:window-height="1046"
     inkscape:window-x="1961"
     inkscape:window-y="1"
     inkscape:window-maximized="1" />
  <metadata
     id="metadata5">
    <rdf:RDF>
      <cc:Work
         rdf:about="">
        <dc:format>image/svg+xml</dc:format>
        <dc:type
           rdf:resource="http://purl.org/dc/dcmitype/StillImage" />
        <dc:title></dc:title>
      </cc:Work>
    </rdf:RDF>
  </metadata>
  <g
     transform="translate(902.1432,646.79731)"
     inkscape:label="Layer 1"
     inkscape:groupmode="layer"
     id="layer1">
    <path
       style="fill:#7ca5cf;fill-opacity:1;stroke:none;stroke-width:4.17991;stroke-linecap:butt;stroke-linejoin:bevel;stroke-miterlimit:4;stroke-dasharray:none;stroke-opacity:1;paint-order:markers fill stroke"
       d="m -591.93987,-636.79731 a 230.0313,225.67676 44.792565 0 1 36.11165,29.23614 230.0313,225.67676 44.792565 0 1 3.13244,322.21228 230.0313,225.67676 44.792565 0 1 -322.25718,-3.02777 230.0313,225.67676 44.792565 0 1 -29.19024,-35.57739 279.61115,274.31805 44.792593 0 0 79.05336,154.1912 279.61115,274.31805 44.792593 0 0 391.71174,3.67735 279.61115,274.31805 44.792593 0 0 -3.80473,-391.65589 279.61115,274.31805 44.792593 0 0 -154.75704,-79.05592 z"
       id="path1924"
       inkscape:connector-curvature="0"
       inkscape:export-filename="/home/trevor/longterm/lunar/lunar-website/assets/images/logo-02b.png"
       inkscape:export-xdpi="96"
       inkscape:export-ydpi="96" />
    <text
       inkscape:export-ydpi="96"
       inkscape:export-xdpi="96"
       inkscape:export-filename="/home/trevor/longterm/lunar/lunar-website/assets/images/logo-02b.png"
       xml:space="preserve"
       style="font-style:normal;font-variant:normal;font-weight:900;font-stretch:normal;font-size:160.468px;line-height:1.25;font-family:kanit;-inkscape-font-specification:'kanit Heavy';text-align:center;letter-spacing:16.7155px;word-spacing:0px;text-anchor:middle;fill:#7ca5cf;fill-opacity:1;stroke:none;stroke-width:1;stroke-miterlimit:4;stroke-dasharray:none;paint-order:markers fill stroke"
       x="312.56668"
       y="-81.01519"
       id="text1928"
       transform="scale(0.99991791,1.0000821)"><tspan
         sodipodi:role="line"
         id="tspan1926"
         x="320.92444"
         y="-81.01519"
         style="fill:#7ca5cf;fill-opacity:1;stroke:none;stroke-width:1;stroke-miterlimit:4;stroke-dasharray:none;paint-order:markers fill stroke">LINUX</tspan></text>
    <text
       inkscape:export-ydpi="96"
       inkscape:export-xdpi="96"
       inkscape:export-filename="/home/trevor/longterm/lunar/lunar-website/assets/images/logo-02b.png"
       xml:space="preserve"
       style="font-style:normal;font-variant:normal;font-weight:900;font-stretch:normal;font-size:250.176px;line-height:1.25;font-family:kanit;-inkscape-font-specification:'kanit Heavy';text-align:center;letter-spacing:13.03px;word-spacing:0px;text-anchor:middle;fill:#162d50;fill-opacity:1;stroke:none;stroke-width:1;stroke-miterlimit:4;stroke-dasharray:none;stroke-opacity:1;paint-order:markers fill stroke"
       x="143.30202"
       y="-206.00635"
       id="text1932"
       transform="scale(0.99991791,1.0000821)"><tspan
         style="fill:#162d50;fill-opacity:1;stroke:none;stroke-width:1"
         sodipodi:role="line"
         id="tspan1930"
         x="149.81702"
         y="-206.00635">LUNAR</tspan></text>
    <path
       inkscape:export-ydpi="96"
       inkscape:export-xdpi="96"
       inkscape:export-filename="/home/trevor/longterm/lunar/lunar-website/assets/images/logo-02b.png"
       sodipodi:nodetypes="cccccccccccccccscc"
       d="m -734.8727,-503.16101 c -37.5233,-0.1251 -59.8365,6.7923 -92.0131,15.4893 72.3873,-6.3389 107.3,-6.7 129.5638,1.2914 -43.0566,-1.2181 -73.6554,0.6014 -154.9715,19.6322 56.2146,-7.7126 85.2318,-7.6238 126.7458,-5.5176 -46.6735,2.985 -83.8872,10.3696 -145.398,29.9682 74.6492,-16.2946 115.3834,-16.1701 161.9266,-15.118 -49.5333,3.933 -99.1272,12.0974 -177.13,42.7906 91.6727,-26.4961 131.5128,-20.7732 176.4508,-20.7956 -3.123,4.5137 2.1016,-5.6223 0,0 -19.8117,95.7799 -27.504,148.8097 -16.7408,267.6938 104.0281,40.2265 109.3608,-54.6522 232.8841,-64.9117 -2.8925,-69.7341 -1.7941,-51.2071 -14.2524,-114.8857 27.5236,0.6699 73.9821,-14.556 73.9821,-14.556 22.7602,-5.7545 23.383,-15.4199 58.879,-18.7357 0,0 -17.3897,-28.2756 -54.2837,-45.6528 -13.7924,-6.4954 -44.5732,-16.5086 -85.9114,-22.6033 -59.1108,-52.3689 -166.5916,-53.5925 -219.7313,-54.0891 z"
       style="fill:#162d50;fill-opacity:1;stroke:none;stroke-width:1;stroke-linecap:square;stroke-miterlimit:4;stroke-dasharray:none;paint-order:stroke fill markers"
       id="path1934" />
  </g>
</svg>
