<?xml version="1.0" encoding="UTF-8" standalone="no"?>
<svg
   xmlns:dc="http://purl.org/dc/elements/1.1/"
   xmlns:cc="http://creativecommons.org/ns#"
   xmlns:rdf="http://www.w3.org/1999/02/22-rdf-syntax-ns#"
   xmlns:svg="http://www.w3.org/2000/svg"
   xmlns="http://www.w3.org/2000/svg"
   xmlns:sodipodi="http://sodipodi.sourceforge.net/DTD/sodipodi-0.dtd"
   xmlns:inkscape="http://www.inkscape.org/namespaces/inkscape"
   inkscape:export-ydpi="96"
   inkscape:export-xdpi="96"
   inkscape:export-filename="/home/trevor/longterm/lunar/lunar-website/assets/images/logo-01.png"
   width="512"
   height="512"
   viewBox="0 0 511.99999 512"
   version="1.1"
   id="svg8"
   inkscape:version="1.0.2 (e86c870879, 2021-01-15)"
   sodipodi:docname="lunar_logo-01.svg">
  <defs
     id="defs2" />
  <sodipodi:namedview
     fit-margin-bottom="0"
     fit-margin-right="0"
     fit-margin-left="0"
     fit-margin-top="0"
     id="base"
     pagecolor="#ffffff"
     bordercolor="#666666"
     borderopacity="1.0"
     inkscape:pageopacity="0.0"
     inkscape:pageshadow="2"
     inkscape:zoom="0.49497475"
     inkscape:cx="950.18121"
     inkscape:cy="402.52126"
     inkscape:document-units="px"
     inkscape:current-layer="layer1"
     inkscape:document-rotation="0"
     showgrid="false"
     units="px"
     showborder="false"
     inkscape:window-width="2519"
     inkscape:window-height="1046"
     inkscape:window-x="1961"
     inkscape:window-y="1"
     inkscape:window-maximized="1" />
  <metadata
     id="metadata5">
    <rdf:RDF>
      <cc:Work
         rdf:about="">
        <dc:format>image/svg+xml</dc:format>
        <dc:type
           rdf:resource="http://purl.org/dc/dcmitype/StillImage" />
        <dc:title></dc:title>
      </cc:Work>
    </rdf:RDF>
  </metadata>
  <g
     transform="translate(902.1432,646.79731)"
     inkscape:label="Layer 1"
     inkscape:groupmode="layer"
     id="layer1">
    <path
       style="fill:#7ca5cf;fill-opacity:1;stroke:none;stroke-width:3.89112;stroke-linecap:butt;stroke-linejoin:bevel;stroke-miterlimit:4;stroke-dasharray:none;stroke-opacity:1;paint-order:markers fill stroke"
       d="m -611.51028,-646.79731 a 214.13823,210.08455 44.792565 0 1 33.61666,27.21619 214.13823,210.08455 44.792565 0 1 2.91602,299.95034 214.13823,210.08455 44.792565 0 1 -299.99214,-2.81858 214.13823,210.08455 44.792565 0 1 -27.17346,-33.11931 260.29256,255.36517 44.792593 0 0 73.59149,143.53799 260.29256,255.36517 44.792593 0 0 364.64803,3.42328 260.29256,255.36517 44.792593 0 0 -3.54186,-364.59603 260.29256,255.36517 44.792593 0 0 -144.06474,-73.59388 z"
       id="path1924"
       inkscape:connector-curvature="0"
       inkscape:export-filename="/home/trevor/longterm/lunar/lunar-website/assets/images/logo-02b.png"
       inkscape:export-xdpi="96"
       inkscape:export-ydpi="96" />
    <path
       inkscape:export-ydpi="96"
       inkscape:export-xdpi="96"
       inkscape:export-filename="/home/trevor/longterm/lunar/lunar-website/assets/images/logo-02b.png"
       sodipodi:nodetypes="cccccccccccccccscc"
       d="m -744.56775,-522.39406 c -34.93078,-0.11646 -55.70234,6.32301 -85.65583,14.41913 67.38599,-5.90094 99.88654,-6.23709 120.61212,1.20217 -40.08178,-1.13394 -68.56648,0.55985 -144.26438,18.2758 52.33068,-7.17973 79.34306,-7.09707 117.98882,-5.13639 -43.44879,2.77877 -78.09136,9.65316 -135.35233,27.89767 69.49162,-15.16879 107.41146,-15.05289 150.73895,-14.07348 -46.111,3.66127 -92.27841,11.26158 -164.89193,39.83416 85.33895,-24.66546 122.42646,-19.33796 164.25966,-19.35881 -2.90723,4.20184 1.9564,-5.23385 0,0 -18.44289,89.16238 -25.60373,138.5283 -15.58417,249.19859 96.84071,37.44722 101.80497,-50.87623 216.79393,-60.42689 -2.69265,-64.91611 -1.67014,-47.66916 -13.26769,-106.94815 25.62197,0.62362 68.87061,-13.55031 68.87061,-13.55031 21.18768,-5.35691 21.76745,-14.35452 54.811,-17.44123 0,0 -16.18823,-26.32202 -50.53319,-42.49861 -12.83947,-6.04663 -41.4936,-15.36801 -79.9757,-21.04162 -55.02679,-48.75068 -155.08164,-49.88974 -204.54987,-50.35203 z"
       style="fill:#162d50;fill-opacity:1;stroke:none;stroke-width:0.930909;stroke-linecap:square;stroke-miterlimit:4;stroke-dasharray:none;paint-order:stroke fill markers"
       id="path1934" />
  </g>
</svg>
