<?xml version="1.0" encoding="UTF-8" standalone="no"?>
<!-- Created with Inkscape (http://www.inkscape.org/) -->

<svg
   version="1.1"
   id="svg944"
   width="2048"
   height="1928.0444"
   viewBox="0 0 2048 1928.0444"
   sodipodi:docname="lunar_bg-02.svg"
   inkscape:version="1.1 (c68e22c387, 2021-05-23)"
   xmlns:inkscape="http://www.inkscape.org/namespaces/inkscape"
   xmlns:sodipodi="http://sodipodi.sourceforge.net/DTD/sodipodi-0.dtd"
   xmlns="http://www.w3.org/2000/svg"
   xmlns:svg="http://www.w3.org/2000/svg">
  <defs
     id="defs948" />
  <sodipodi:namedview
     id="namedview946"
     pagecolor="#505050"
     bordercolor="#ffffff"
     borderopacity="1"
     inkscape:pageshadow="0"
     inkscape:pageopacity="0"
     inkscape:pagecheckerboard="1"
     showgrid="false"
     inkscape:snap-bbox="true"
     inkscape:snap-nodes="true"
     inkscape:bbox-paths="true"
     inkscape:bbox-nodes="true"
     inkscape:snap-bbox-edge-midpoints="true"
     showguides="true"
     inkscape:guide-bbox="true"
     inkscape:zoom="0.38635944"
     inkscape:cx="759.65531"
     inkscape:cy="1002.9521"
     inkscape:window-width="2519"
     inkscape:window-height="1046"
     inkscape:window-x="1961"
     inkscape:window-y="1"
     inkscape:window-maximized="1"
     inkscape:current-layer="g950"
     inkscape:snap-intersection-paths="true"
     inkscape:snap-smooth-nodes="true"
     inkscape:snap-global="true"
     inkscape:snap-midpoints="true"
     inkscape:object-paths="true"
     fit-margin-top="0"
     fit-margin-left="0"
     fit-margin-right="0"
     fit-margin-bottom="0"
     showborder="false">
    <sodipodi:guide
       position="-2.3889095e-13,1024.0444"
       orientation="0,-1"
       id="guide34646" />
  </sodipodi:namedview>
  <g
     inkscape:groupmode="layer"
     inkscape:label="Image"
     id="g950"
     transform="translate(-4355.4595,-120)">
    <rect
       style="fill:#162d50;fill-opacity:1;stroke:none;stroke-width:0.578663;stroke-linecap:round;stroke-linejoin:round;paint-order:stroke fill markers"
       id="rect2598"
       width="2048"
       height="892"
       x="4355.4595"
       y="120" />
    <path
       id="rect1056"
       style="fill:#525e7a;fill-opacity:1;stroke:none;stroke-width:0.461726;stroke-linecap:round;stroke-linejoin:round;paint-order:stroke fill markers"
       d="m 4393.8566,573.7053 c 45.4415,-6.99076 47.9274,-13.68162 93.3087,-19.72973 45.5629,-6.07137 88.5868,-1.64732 134.0893,-6.77139 45.6665,-5.14272 93.709,-12.85216 139.3151,-17.04758 45.7519,-4.20938 81.2166,-10.03345 126.9063,-13.30017 45.8193,-3.27138 94.3156,-1.40934 140.0717,-3.73335 45.8629,-2.33338 90.3233,1.65668 136.1305,0.27066 45.8908,-1.39071 103.3228,-2.48269 149.1579,-2.9307 45.9047,-0.44801 84.8615,-4.81607 130.7012,-4.32607 45.8954,0.49469 91.0339,0.26601 136.869,1.69401 45.8629,1.42804 103.5689,-3.06601 149.3715,-0.70932 45.8165,2.36135 83.1524,7.05606 128.9131,10.34145 45.7469,3.28073 94.0527,8.03145 139.7438,12.23152 45.6679,4.20002 89.2087,9.07208 134.8208,14.18218 45.5657,5.1007 95.5807,8.89475 141.0907,14.90082 45.4495,5.99676 83.7167,8.93332 128.3099,20.07307 l 0.8006,1469.1937 H 4356.26 l -0.8005,-1472.16125"
       sodipodi:nodetypes="ccccccccccccccccccc" />
    <ellipse
       style="fill:#525e7a;fill-opacity:1;stroke:none;stroke-width:0.168301;stroke-linecap:round;stroke-linejoin:round;paint-order:stroke fill markers"
       id="circle29063"
       cx="5659.6025"
       cy="913.4574"
       transform="matrix(0.99876627,0.04965818,0.43253972,0.90161488,0,0)"
       rx="242.0206"
       ry="124.09982" />
    <path
       id="path29065"
       style="fill:#3e465b;fill-opacity:1;stroke:none;stroke-width:0.157792;stroke-linecap:round;stroke-linejoin:round;paint-order:stroke fill markers"
       d="m 6278.9496,1100.1592 c -14.5654,36.8239 -65.5659,64.0838 -137.8439,73.3951 -78.7119,10.1402 -215.2172,-4.4112 -277.6062,-24.827 59.535,37.4248 150.4904,63.3442 237.9053,67.7953 64.1087,3.1875 119.9363,-5.544 155.2014,-24.2736 35.2651,-18.7296 47.079,-45.9231 32.8428,-75.5982 -2.6447,-5.4768 -6.1539,-10.9888 -10.4994,-16.4916 z"
       sodipodi:nodetypes="caccscc" />
    <path
       id="path29067"
       style="fill:#5b688a;fill-opacity:1;stroke:none;stroke-width:0.157792;stroke-linecap:round;stroke-linejoin:round;paint-order:stroke fill markers"
       d="m 5994.0486,992.74214 a 250.78245,105.27538 10.060392 0 0 -188.0441,99.87206 250.78245,105.27538 10.060392 0 0 57.5848,56.1427 267.18741,112.16198 10.060392 0 1 200.5087,-105.906 267.18741,112.16198 10.060392 0 1 205.6458,46.9022 250.78245,105.27538 10.060392 0 0 -275.6952,-97.01096 z" />
    <g
       id="g29077"
       transform="matrix(0.03262684,-0.00583029,0.00865568,0.01834031,5816.0126,1051.0916)">
      <circle
         style="fill:#525e7a;fill-opacity:1;stroke:none;stroke-width:1.12021;stroke-linecap:round;stroke-linejoin:round;paint-order:stroke fill markers"
         id="circle29071"
         cx="5394.5347"
         cy="5991.8755"
         r="1153.5209" />
      <path
         id="path29073"
         style="fill:#3e465b;fill-opacity:1;stroke:none;stroke-width:1.12021;stroke-linecap:round;stroke-linejoin:round;paint-order:stroke fill markers"
         d="m 6535.4062,5823.217 c -157.5693,396.557 -470.8283,711.2378 -846.0115,847.5306 -408.5813,148.4254 -1041.7879,66.4234 -1298.908,-116.4332 203.2763,363.9928 587.142,589.9739 1004.0482,591.0818 305.9327,2e-4 599.3353,-121.5308 815.6626,-337.8577 216.3273,-216.3269 337.8589,-509.7293 337.8592,-815.662 -0.084,-56.4537 -4.3122,-112.8249 -12.6505,-168.6595 z"
         sodipodi:nodetypes="caccscc" />
      <path
         id="path29075"
         style="fill:#5b688a;fill-opacity:1;stroke:none;stroke-width:1.12021;stroke-linecap:round;stroke-linejoin:round;paint-order:stroke fill markers"
         d="m 5394.5349,4838.3547 a 1153.5209,1153.5209 0 0 0 -1153.522,1153.5218 1153.5209,1153.5209 0 0 0 149.8436,562.7026 1228.9786,1228.9786 0 0 1 1228.6088,-1223.7933 1228.9786,1228.9786 0 0 1 895.3418,387.3633 1153.5209,1153.5209 0 0 0 -1120.2722,-879.7944 z" />
    </g>
    <g
       id="g29085"
       transform="matrix(0.0440055,5.6401704e-4,0.00995429,0.02089317,5766.6499,799.12313)">
      <circle
         style="fill:#525e7a;fill-opacity:1;stroke:none;stroke-width:1.12021;stroke-linecap:round;stroke-linejoin:round;paint-order:stroke fill markers"
         id="circle29079"
         cx="5394.5347"
         cy="5991.8755"
         r="1153.5209" />
      <path
         id="path29081"
         style="fill:#3e465b;fill-opacity:1;stroke:none;stroke-width:1.12021;stroke-linecap:round;stroke-linejoin:round;paint-order:stroke fill markers"
         d="m 6535.4062,5823.217 c -157.5693,396.557 -470.8283,711.2378 -846.0115,847.5306 -408.5813,148.4254 -1041.7879,66.4234 -1298.908,-116.4332 203.2763,363.9928 587.142,589.9739 1004.0482,591.0818 305.9327,2e-4 599.3353,-121.5308 815.6626,-337.8577 216.3273,-216.3269 337.8589,-509.7293 337.8592,-815.662 -0.084,-56.4537 -4.3122,-112.8249 -12.6505,-168.6595 z"
         sodipodi:nodetypes="caccscc" />
      <path
         id="path29083"
         style="fill:#5b688a;fill-opacity:1;stroke:none;stroke-width:1.12021;stroke-linecap:round;stroke-linejoin:round;paint-order:stroke fill markers"
         d="m 5394.5349,4838.3547 a 1153.5209,1153.5209 0 0 0 -1153.522,1153.5218 1153.5209,1153.5209 0 0 0 149.8436,562.7026 1228.9786,1228.9786 0 0 1 1228.6088,-1223.7933 1228.9786,1228.9786 0 0 1 895.3418,387.3633 1153.5209,1153.5209 0 0 0 -1120.2722,-879.7944 z" />
    </g>
    <g
       id="g29093"
       transform="matrix(0.04492166,0.00301267,0.01003729,0.01772545,5905.9956,622.73954)">
      <circle
         style="fill:#525e7a;fill-opacity:1;stroke:none;stroke-width:1.12021;stroke-linecap:round;stroke-linejoin:round;paint-order:stroke fill markers"
         id="circle29087"
         cx="5394.5347"
         cy="5991.8755"
         r="1153.5209" />
      <path
         id="path29089"
         style="fill:#3e465b;fill-opacity:1;stroke:none;stroke-width:1.12021;stroke-linecap:round;stroke-linejoin:round;paint-order:stroke fill markers"
         d="m 6535.4062,5823.217 c -157.5693,396.557 -470.8283,711.2378 -846.0115,847.5306 -408.5813,148.4254 -1041.7879,66.4234 -1298.908,-116.4332 203.2763,363.9928 587.142,589.9739 1004.0482,591.0818 305.9327,2e-4 599.3353,-121.5308 815.6626,-337.8577 216.3273,-216.3269 337.8589,-509.7293 337.8592,-815.662 -0.084,-56.4537 -4.3122,-112.8249 -12.6505,-168.6595 z"
         sodipodi:nodetypes="caccscc" />
      <path
         id="path29091"
         style="fill:#5b688a;fill-opacity:1;stroke:none;stroke-width:1.12021;stroke-linecap:round;stroke-linejoin:round;paint-order:stroke fill markers"
         d="m 5394.5349,4838.3547 a 1153.5209,1153.5209 0 0 0 -1153.522,1153.5218 1153.5209,1153.5209 0 0 0 149.8436,562.7026 1228.9786,1228.9786 0 0 1 1228.6088,-1223.7933 1228.9786,1228.9786 0 0 1 895.3418,387.3633 1153.5209,1153.5209 0 0 0 -1120.2722,-879.7944 z" />
    </g>
    <g
       id="g29101"
       transform="matrix(0.03613052,-1.3720506e-4,0.00904833,0.01183657,5251.1533,594.98218)">
      <circle
         style="fill:#525e7a;fill-opacity:1;stroke:none;stroke-width:1.12021;stroke-linecap:round;stroke-linejoin:round;paint-order:stroke fill markers"
         id="circle29095"
         cx="5394.5347"
         cy="5991.8755"
         r="1153.5209" />
      <path
         id="path29097"
         style="fill:#3e465b;fill-opacity:1;stroke:none;stroke-width:1.12021;stroke-linecap:round;stroke-linejoin:round;paint-order:stroke fill markers"
         d="m 6535.4062,5823.217 c -157.5693,396.557 -470.8283,711.2378 -846.0115,847.5306 -408.5813,148.4254 -1041.7879,66.4234 -1298.908,-116.4332 203.2763,363.9928 587.142,589.9739 1004.0482,591.0818 305.9327,2e-4 599.3353,-121.5308 815.6626,-337.8577 216.3273,-216.3269 337.8589,-509.7293 337.8592,-815.662 -0.084,-56.4537 -4.3122,-112.8249 -12.6505,-168.6595 z"
         sodipodi:nodetypes="caccscc" />
      <path
         id="path29099"
         style="fill:#5b688a;fill-opacity:1;stroke:none;stroke-width:1.12021;stroke-linecap:round;stroke-linejoin:round;paint-order:stroke fill markers"
         d="m 5394.5349,4838.3547 a 1153.5209,1153.5209 0 0 0 -1153.522,1153.5218 1153.5209,1153.5209 0 0 0 149.8436,562.7026 1228.9786,1228.9786 0 0 1 1228.6088,-1223.7933 1228.9786,1228.9786 0 0 1 895.3418,387.3633 1153.5209,1153.5209 0 0 0 -1120.2722,-879.7944 z" />
    </g>
    <g
       id="g29109"
       transform="matrix(0.06171449,-0.00136713,0.0160613,0.01299675,5172.3665,521.75688)">
      <circle
         style="fill:#525e7a;fill-opacity:1;stroke:none;stroke-width:1.12021;stroke-linecap:round;stroke-linejoin:round;paint-order:stroke fill markers"
         id="circle29103"
         cx="5394.5347"
         cy="5991.8755"
         r="1153.5209" />
      <path
         id="path29105"
         style="fill:#3e465b;fill-opacity:1;stroke:none;stroke-width:1.12021;stroke-linecap:round;stroke-linejoin:round;paint-order:stroke fill markers"
         d="m 6535.4062,5823.217 c -157.5693,396.557 -470.8283,711.2378 -846.0115,847.5306 -408.5813,148.4254 -1041.7879,66.4234 -1298.908,-116.4332 203.2763,363.9928 587.142,589.9739 1004.0482,591.0818 305.9327,2e-4 599.3353,-121.5308 815.6626,-337.8577 216.3273,-216.3269 337.8589,-509.7293 337.8592,-815.662 -0.084,-56.4537 -4.3122,-112.8249 -12.6505,-168.6595 z"
         sodipodi:nodetypes="caccscc" />
      <path
         id="path29107"
         style="fill:#5b688a;fill-opacity:1;stroke:none;stroke-width:1.12021;stroke-linecap:round;stroke-linejoin:round;paint-order:stroke fill markers"
         d="m 5394.5349,4838.3547 a 1153.5209,1153.5209 0 0 0 -1153.522,1153.5218 1153.5209,1153.5209 0 0 0 149.8436,562.7026 1228.9786,1228.9786 0 0 1 1228.6088,-1223.7933 1228.9786,1228.9786 0 0 1 895.3418,387.3633 1153.5209,1153.5209 0 0 0 -1120.2722,-879.7944 z" />
    </g>
    <g
       id="g29117"
       transform="matrix(0.05370337,-0.01298369,0.01314434,0.03645052,4727.5746,1392.4679)">
      <circle
         style="fill:#525e7a;fill-opacity:1;stroke:none;stroke-width:1.12021;stroke-linecap:round;stroke-linejoin:round;paint-order:stroke fill markers"
         id="circle29111"
         cx="5394.5347"
         cy="5991.8755"
         r="1153.5209" />
      <path
         id="path29113"
         style="fill:#3e465b;fill-opacity:1;stroke:none;stroke-width:1.12021;stroke-linecap:round;stroke-linejoin:round;paint-order:stroke fill markers"
         d="m 6535.4062,5823.217 c -157.5693,396.557 -470.8283,711.2378 -846.0115,847.5306 -408.5813,148.4254 -1041.7879,66.4234 -1298.908,-116.4332 203.2763,363.9928 587.142,589.9739 1004.0482,591.0818 305.9327,2e-4 599.3353,-121.5308 815.6626,-337.8577 216.3273,-216.3269 337.8589,-509.7293 337.8592,-815.662 -0.084,-56.4537 -4.3122,-112.8249 -12.6505,-168.6595 z"
         sodipodi:nodetypes="caccscc" />
      <path
         id="path29115"
         style="fill:#5b688a;fill-opacity:1;stroke:none;stroke-width:1.12021;stroke-linecap:round;stroke-linejoin:round;paint-order:stroke fill markers"
         d="m 5394.5349,4838.3547 a 1153.5209,1153.5209 0 0 0 -1153.522,1153.5218 1153.5209,1153.5209 0 0 0 149.8436,562.7026 1228.9786,1228.9786 0 0 1 1228.6088,-1223.7933 1228.9786,1228.9786 0 0 1 895.3418,387.3633 1153.5209,1153.5209 0 0 0 -1120.2722,-879.7944 z" />
    </g>
    <g
       id="g29125"
       transform="matrix(0.02250319,-0.00762819,0.00641918,0.01292725,4897.6249,1113.077)">
      <circle
         style="fill:#525e7a;fill-opacity:1;stroke:none;stroke-width:1.12021;stroke-linecap:round;stroke-linejoin:round;paint-order:stroke fill markers"
         id="circle29119"
         cx="5394.5347"
         cy="5991.8755"
         r="1153.5209" />
      <path
         id="path29121"
         style="fill:#3e465b;fill-opacity:1;stroke:none;stroke-width:1.12021;stroke-linecap:round;stroke-linejoin:round;paint-order:stroke fill markers"
         d="m 6535.4062,5823.217 c -157.5693,396.557 -470.8283,711.2378 -846.0115,847.5306 -408.5813,148.4254 -1041.7879,66.4234 -1298.908,-116.4332 203.2763,363.9928 587.142,589.9739 1004.0482,591.0818 305.9327,2e-4 599.3353,-121.5308 815.6626,-337.8577 216.3273,-216.3269 337.8589,-509.7293 337.8592,-815.662 -0.084,-56.4537 -4.3122,-112.8249 -12.6505,-168.6595 z"
         sodipodi:nodetypes="caccscc" />
      <path
         id="path29123"
         style="fill:#5b688a;fill-opacity:1;stroke:none;stroke-width:1.12021;stroke-linecap:round;stroke-linejoin:round;paint-order:stroke fill markers"
         d="m 5394.5349,4838.3547 a 1153.5209,1153.5209 0 0 0 -1153.522,1153.5218 1153.5209,1153.5209 0 0 0 149.8436,562.7026 1228.9786,1228.9786 0 0 1 1228.6088,-1223.7933 1228.9786,1228.9786 0 0 1 895.3418,387.3633 1153.5209,1153.5209 0 0 0 -1120.2722,-879.7944 z" />
    </g>
    <g
       id="g29133"
       transform="matrix(0.0337318,-0.00154401,0.00406111,0.01414816,4758.7886,797.41069)">
      <circle
         style="fill:#525e7a;fill-opacity:1;stroke:none;stroke-width:1.12021;stroke-linecap:round;stroke-linejoin:round;paint-order:stroke fill markers"
         id="circle29127"
         cx="5394.5347"
         cy="5991.8755"
         r="1153.5209" />
      <path
         id="path29129"
         style="fill:#3e465b;fill-opacity:1;stroke:none;stroke-width:1.12021;stroke-linecap:round;stroke-linejoin:round;paint-order:stroke fill markers"
         d="m 6535.4062,5823.217 c -157.5693,396.557 -470.8283,711.2378 -846.0115,847.5306 -408.5813,148.4254 -1041.7879,66.4234 -1298.908,-116.4332 203.2763,363.9928 587.142,589.9739 1004.0482,591.0818 305.9327,2e-4 599.3353,-121.5308 815.6626,-337.8577 216.3273,-216.3269 337.8589,-509.7293 337.8592,-815.662 -0.084,-56.4537 -4.3122,-112.8249 -12.6505,-168.6595 z"
         sodipodi:nodetypes="caccscc" />
      <path
         id="path29131"
         style="fill:#5b688a;fill-opacity:1;stroke:none;stroke-width:1.12021;stroke-linecap:round;stroke-linejoin:round;paint-order:stroke fill markers"
         d="m 5394.5349,4838.3547 a 1153.5209,1153.5209 0 0 0 -1153.522,1153.5218 1153.5209,1153.5209 0 0 0 149.8436,562.7026 1228.9786,1228.9786 0 0 1 1228.6088,-1223.7933 1228.9786,1228.9786 0 0 1 895.3418,387.3633 1153.5209,1153.5209 0 0 0 -1120.2722,-879.7944 z" />
    </g>
    <g
       id="g29141"
       transform="matrix(0.0337318,-0.00154401,0.00406111,0.01414816,4819.9855,651.35321)">
      <circle
         style="fill:#525e7a;fill-opacity:1;stroke:none;stroke-width:1.12021;stroke-linecap:round;stroke-linejoin:round;paint-order:stroke fill markers"
         id="circle29135"
         cx="5394.5347"
         cy="5991.8755"
         r="1153.5209" />
      <path
         id="path29137"
         style="fill:#3e465b;fill-opacity:1;stroke:none;stroke-width:1.12021;stroke-linecap:round;stroke-linejoin:round;paint-order:stroke fill markers"
         d="m 6535.4062,5823.217 c -157.5693,396.557 -470.8283,711.2378 -846.0115,847.5306 -408.5813,148.4254 -1041.7879,66.4234 -1298.908,-116.4332 203.2763,363.9928 587.142,589.9739 1004.0482,591.0818 305.9327,2e-4 599.3353,-121.5308 815.6626,-337.8577 216.3273,-216.3269 337.8589,-509.7293 337.8592,-815.662 -0.084,-56.4537 -4.3122,-112.8249 -12.6505,-168.6595 z"
         sodipodi:nodetypes="caccscc" />
      <path
         id="path29139"
         style="fill:#5b688a;fill-opacity:1;stroke:none;stroke-width:1.12021;stroke-linecap:round;stroke-linejoin:round;paint-order:stroke fill markers"
         d="m 5394.5349,4838.3547 a 1153.5209,1153.5209 0 0 0 -1153.522,1153.5218 1153.5209,1153.5209 0 0 0 149.8436,562.7026 1228.9786,1228.9786 0 0 1 1228.6088,-1223.7933 1228.9786,1228.9786 0 0 1 895.3418,387.3633 1153.5209,1153.5209 0 0 0 -1120.2722,-879.7944 z" />
    </g>
    <g
       id="g29149"
       transform="matrix(0.03367973,-0.00210735,0.00435838,0.00869926,4913.2754,537.8429)">
      <circle
         style="fill:#525e7a;fill-opacity:1;stroke:none;stroke-width:1.12021;stroke-linecap:round;stroke-linejoin:round;paint-order:stroke fill markers"
         id="circle29143"
         cx="5394.5347"
         cy="5991.8755"
         r="1153.5209" />
      <path
         id="path29145"
         style="fill:#3e465b;fill-opacity:1;stroke:none;stroke-width:1.12021;stroke-linecap:round;stroke-linejoin:round;paint-order:stroke fill markers"
         d="m 6535.4062,5823.217 c -157.5693,396.557 -470.8283,711.2378 -846.0115,847.5306 -408.5813,148.4254 -1041.7879,66.4234 -1298.908,-116.4332 203.2763,363.9928 587.142,589.9739 1004.0482,591.0818 305.9327,2e-4 599.3353,-121.5308 815.6626,-337.8577 216.3273,-216.3269 337.8589,-509.7293 337.8592,-815.662 -0.084,-56.4537 -4.3122,-112.8249 -12.6505,-168.6595 z"
         sodipodi:nodetypes="caccscc" />
      <path
         id="path29147"
         style="fill:#5b688a;fill-opacity:1;stroke:none;stroke-width:1.12021;stroke-linecap:round;stroke-linejoin:round;paint-order:stroke fill markers"
         d="m 5394.5349,4838.3547 a 1153.5209,1153.5209 0 0 0 -1153.522,1153.5218 1153.5209,1153.5209 0 0 0 149.8436,562.7026 1228.9786,1228.9786 0 0 1 1228.6088,-1223.7933 1228.9786,1228.9786 0 0 1 895.3418,387.3633 1153.5209,1153.5209 0 0 0 -1120.2722,-879.7944 z" />
    </g>
    <g
       id="g29157"
       transform="matrix(0.02682928,-0.00151624,0.00347189,0.0062591,4600.3216,699.70508)">
      <circle
         style="fill:#525e7a;fill-opacity:1;stroke:none;stroke-width:1.12021;stroke-linecap:round;stroke-linejoin:round;paint-order:stroke fill markers"
         id="circle29151"
         cx="5394.5347"
         cy="5991.8755"
         r="1153.5209" />
      <path
         id="path29153"
         style="fill:#3e465b;fill-opacity:1;stroke:none;stroke-width:1.12021;stroke-linecap:round;stroke-linejoin:round;paint-order:stroke fill markers"
         d="m 6535.4062,5823.217 c -157.5693,396.557 -470.8283,711.2378 -846.0115,847.5306 -408.5813,148.4254 -1041.7879,66.4234 -1298.908,-116.4332 203.2763,363.9928 587.142,589.9739 1004.0482,591.0818 305.9327,2e-4 599.3353,-121.5308 815.6626,-337.8577 216.3273,-216.3269 337.8589,-509.7293 337.8592,-815.662 -0.084,-56.4537 -4.3122,-112.8249 -12.6505,-168.6595 z"
         sodipodi:nodetypes="caccscc" />
      <path
         id="path29155"
         style="fill:#5b688a;fill-opacity:1;stroke:none;stroke-width:1.12021;stroke-linecap:round;stroke-linejoin:round;paint-order:stroke fill markers"
         d="m 5394.5349,4838.3547 a 1153.5209,1153.5209 0 0 0 -1153.522,1153.5218 1153.5209,1153.5209 0 0 0 149.8436,562.7026 1228.9786,1228.9786 0 0 1 1228.6088,-1223.7933 1228.9786,1228.9786 0 0 1 895.3418,387.3633 1153.5209,1153.5209 0 0 0 -1120.2722,-879.7944 z" />
    </g>
    <g
       id="g29165"
       transform="matrix(0.02195998,0.00106381,0.00243661,0.00656083,5973.2349,754.71873)">
      <circle
         style="fill:#525e7a;fill-opacity:1;stroke:none;stroke-width:1.12021;stroke-linecap:round;stroke-linejoin:round;paint-order:stroke fill markers"
         id="circle29159"
         cx="5394.5347"
         cy="5991.8755"
         r="1153.5209" />
      <path
         id="path29161"
         style="fill:#3e465b;fill-opacity:1;stroke:none;stroke-width:1.12021;stroke-linecap:round;stroke-linejoin:round;paint-order:stroke fill markers"
         d="m 6535.4062,5823.217 c -157.5693,396.557 -470.8283,711.2378 -846.0115,847.5306 -408.5813,148.4254 -1041.7879,66.4234 -1298.908,-116.4332 203.2763,363.9928 587.142,589.9739 1004.0482,591.0818 305.9327,2e-4 599.3353,-121.5308 815.6626,-337.8577 216.3273,-216.3269 337.8589,-509.7293 337.8592,-815.662 -0.084,-56.4537 -4.3122,-112.8249 -12.6505,-168.6595 z"
         sodipodi:nodetypes="caccscc" />
      <path
         id="path29163"
         style="fill:#5b688a;fill-opacity:1;stroke:none;stroke-width:1.12021;stroke-linecap:round;stroke-linejoin:round;paint-order:stroke fill markers"
         d="m 5394.5349,4838.3547 a 1153.5209,1153.5209 0 0 0 -1153.522,1153.5218 1153.5209,1153.5209 0 0 0 149.8436,562.7026 1228.9786,1228.9786 0 0 1 1228.6088,-1223.7933 1228.9786,1228.9786 0 0 1 895.3418,387.3633 1153.5209,1153.5209 0 0 0 -1120.2722,-879.7944 z" />
    </g>
    <g
       id="g29173"
       transform="matrix(0.01859442,9.8148265e-4,0.00223486,0.0065454,5924.479,592.13745)">
      <circle
         style="fill:#525e7a;fill-opacity:1;stroke:none;stroke-width:1.12021;stroke-linecap:round;stroke-linejoin:round;paint-order:stroke fill markers"
         id="circle29167"
         cx="5394.5347"
         cy="5991.8755"
         r="1153.5209" />
      <path
         id="path29169"
         style="fill:#3e465b;fill-opacity:1;stroke:none;stroke-width:1.12021;stroke-linecap:round;stroke-linejoin:round;paint-order:stroke fill markers"
         d="m 6535.4062,5823.217 c -157.5693,396.557 -470.8283,711.2378 -846.0115,847.5306 -408.5813,148.4254 -1041.7879,66.4234 -1298.908,-116.4332 203.2763,363.9928 587.142,589.9739 1004.0482,591.0818 305.9327,2e-4 599.3353,-121.5308 815.6626,-337.8577 216.3273,-216.3269 337.8589,-509.7293 337.8592,-815.662 -0.084,-56.4537 -4.3122,-112.8249 -12.6505,-168.6595 z"
         sodipodi:nodetypes="caccscc" />
      <path
         id="path29171"
         style="fill:#5b688a;fill-opacity:1;stroke:none;stroke-width:1.12021;stroke-linecap:round;stroke-linejoin:round;paint-order:stroke fill markers"
         d="m 5394.5349,4838.3547 a 1153.5209,1153.5209 0 0 0 -1153.522,1153.5218 1153.5209,1153.5209 0 0 0 149.8436,562.7026 1228.9786,1228.9786 0 0 1 1228.6088,-1223.7933 1228.9786,1228.9786 0 0 1 895.3418,387.3633 1153.5209,1153.5209 0 0 0 -1120.2722,-879.7944 z" />
    </g>
    <g
       id="g29181"
       transform="matrix(0.01654154,6.7579829e-4,0.00211416,0.00490945,5703.6495,545.57319)">
      <circle
         style="fill:#525e7a;fill-opacity:1;stroke:none;stroke-width:1.12021;stroke-linecap:round;stroke-linejoin:round;paint-order:stroke fill markers"
         id="circle29175"
         cx="5394.5347"
         cy="5991.8755"
         r="1153.5209" />
      <path
         id="path29177"
         style="fill:#3e465b;fill-opacity:1;stroke:none;stroke-width:1.12021;stroke-linecap:round;stroke-linejoin:round;paint-order:stroke fill markers"
         d="m 6535.4062,5823.217 c -157.5693,396.557 -470.8283,711.2378 -846.0115,847.5306 -408.5813,148.4254 -1041.7879,66.4234 -1298.908,-116.4332 203.2763,363.9928 587.142,589.9739 1004.0482,591.0818 305.9327,2e-4 599.3353,-121.5308 815.6626,-337.8577 216.3273,-216.3269 337.8589,-509.7293 337.8592,-815.662 -0.084,-56.4537 -4.3122,-112.8249 -12.6505,-168.6595 z"
         sodipodi:nodetypes="caccscc" />
      <path
         id="path29179"
         style="fill:#5b688a;fill-opacity:1;stroke:none;stroke-width:1.12021;stroke-linecap:round;stroke-linejoin:round;paint-order:stroke fill markers"
         d="m 5394.5349,4838.3547 a 1153.5209,1153.5209 0 0 0 -1153.522,1153.5218 1153.5209,1153.5209 0 0 0 149.8436,562.7026 1228.9786,1228.9786 0 0 1 1228.6088,-1223.7933 1228.9786,1228.9786 0 0 1 895.3418,387.3633 1153.5209,1153.5209 0 0 0 -1120.2722,-879.7944 z" />
    </g>
    <g
       id="g29189"
       transform="matrix(0.01593591,6.7579829e-4,0.00203676,0.00490945,6206.2095,742.93894)">
      <circle
         style="fill:#525e7a;fill-opacity:1;stroke:none;stroke-width:1.12021;stroke-linecap:round;stroke-linejoin:round;paint-order:stroke fill markers"
         id="circle29183"
         cx="5394.5347"
         cy="5991.8755"
         r="1153.5209" />
      <path
         id="path29185"
         style="fill:#3e465b;fill-opacity:1;stroke:none;stroke-width:1.12021;stroke-linecap:round;stroke-linejoin:round;paint-order:stroke fill markers"
         d="m 6535.4062,5823.217 c -157.5693,396.557 -470.8283,711.2378 -846.0115,847.5306 -408.5813,148.4254 -1041.7879,66.4234 -1298.908,-116.4332 203.2763,363.9928 587.142,589.9739 1004.0482,591.0818 305.9327,2e-4 599.3353,-121.5308 815.6626,-337.8577 216.3273,-216.3269 337.8589,-509.7293 337.8592,-815.662 -0.084,-56.4537 -4.3122,-112.8249 -12.6505,-168.6595 z"
         sodipodi:nodetypes="caccscc" />
      <path
         id="path29187"
         style="fill:#5b688a;fill-opacity:1;stroke:none;stroke-width:1.12021;stroke-linecap:round;stroke-linejoin:round;paint-order:stroke fill markers"
         d="m 5394.5349,4838.3547 a 1153.5209,1153.5209 0 0 0 -1153.522,1153.5218 1153.5209,1153.5209 0 0 0 149.8436,562.7026 1228.9786,1228.9786 0 0 1 1228.6088,-1223.7933 1228.9786,1228.9786 0 0 1 895.3418,387.3633 1153.5209,1153.5209 0 0 0 -1120.2722,-879.7944 z" />
    </g>
    <g
       id="g29197"
       transform="matrix(0.02384844,0.00401492,0.00191992,0.01551226,6051.0306,1752.9777)">
      <circle
         style="fill:#525e7a;fill-opacity:1;stroke:none;stroke-width:1.12021;stroke-linecap:round;stroke-linejoin:round;paint-order:stroke fill markers"
         id="circle29191"
         cx="5394.5347"
         cy="5991.8755"
         r="1153.5209" />
      <path
         id="path29193"
         style="fill:#3e465b;fill-opacity:1;stroke:none;stroke-width:1.12021;stroke-linecap:round;stroke-linejoin:round;paint-order:stroke fill markers"
         d="m 6535.4062,5823.217 c -157.5693,396.557 -470.8283,711.2378 -846.0115,847.5306 -408.5813,148.4254 -1041.7879,66.4234 -1298.908,-116.4332 203.2763,363.9928 587.142,589.9739 1004.0482,591.0818 305.9327,2e-4 599.3353,-121.5308 815.6626,-337.8577 216.3273,-216.3269 337.8589,-509.7293 337.8592,-815.662 -0.084,-56.4537 -4.3122,-112.8249 -12.6505,-168.6595 z"
         sodipodi:nodetypes="caccscc" />
      <path
         id="path29195"
         style="fill:#5b688a;fill-opacity:1;stroke:none;stroke-width:1.12021;stroke-linecap:round;stroke-linejoin:round;paint-order:stroke fill markers"
         d="m 5394.5349,4838.3547 a 1153.5209,1153.5209 0 0 0 -1153.522,1153.5218 1153.5209,1153.5209 0 0 0 149.8436,562.7026 1228.9786,1228.9786 0 0 1 1228.6088,-1223.7933 1228.9786,1228.9786 0 0 1 895.3418,387.3633 1153.5209,1153.5209 0 0 0 -1120.2722,-879.7944 z" />
    </g>
    <g
       id="g29205"
       transform="matrix(0.01369016,0.00102876,0.00290609,0.01172227,5944.2258,1703.1715)">
      <circle
         style="fill:#525e7a;fill-opacity:1;stroke:none;stroke-width:1.12021;stroke-linecap:round;stroke-linejoin:round;paint-order:stroke fill markers"
         id="circle29199"
         cx="5394.5347"
         cy="5991.8755"
         r="1153.5209" />
      <path
         id="path29201"
         style="fill:#3e465b;fill-opacity:1;stroke:none;stroke-width:1.12021;stroke-linecap:round;stroke-linejoin:round;paint-order:stroke fill markers"
         d="m 6535.4062,5823.217 c -157.5693,396.557 -470.8283,711.2378 -846.0115,847.5306 -408.5813,148.4254 -1041.7879,66.4234 -1298.908,-116.4332 203.2763,363.9928 587.142,589.9739 1004.0482,591.0818 305.9327,2e-4 599.3353,-121.5308 815.6626,-337.8577 216.3273,-216.3269 337.8589,-509.7293 337.8592,-815.662 -0.084,-56.4537 -4.3122,-112.8249 -12.6505,-168.6595 z"
         sodipodi:nodetypes="caccscc" />
      <path
         id="path29203"
         style="fill:#5b688a;fill-opacity:1;stroke:none;stroke-width:1.12021;stroke-linecap:round;stroke-linejoin:round;paint-order:stroke fill markers"
         d="m 5394.5349,4838.3547 a 1153.5209,1153.5209 0 0 0 -1153.522,1153.5218 1153.5209,1153.5209 0 0 0 149.8436,562.7026 1228.9786,1228.9786 0 0 1 1228.6088,-1223.7933 1228.9786,1228.9786 0 0 1 895.3418,387.3633 1153.5209,1153.5209 0 0 0 -1120.2722,-879.7944 z" />
    </g>
    <g
       id="g29213"
       transform="matrix(0.00815761,6.5742641e-4,0.00173166,0.00749104,5875.7839,1792.788)">
      <circle
         style="fill:#525e7a;fill-opacity:1;stroke:none;stroke-width:1.12021;stroke-linecap:round;stroke-linejoin:round;paint-order:stroke fill markers"
         id="circle29207"
         cx="5394.5347"
         cy="5991.8755"
         r="1153.5209" />
      <path
         id="path29209"
         style="fill:#3e465b;fill-opacity:1;stroke:none;stroke-width:1.12021;stroke-linecap:round;stroke-linejoin:round;paint-order:stroke fill markers"
         d="m 6535.4062,5823.217 c -157.5693,396.557 -470.8283,711.2378 -846.0115,847.5306 -408.5813,148.4254 -1041.7879,66.4234 -1298.908,-116.4332 203.2763,363.9928 587.142,589.9739 1004.0482,591.0818 305.9327,2e-4 599.3353,-121.5308 815.6626,-337.8577 216.3273,-216.3269 337.8589,-509.7293 337.8592,-815.662 -0.084,-56.4537 -4.3122,-112.8249 -12.6505,-168.6595 z"
         sodipodi:nodetypes="caccscc" />
      <path
         id="path29211"
         style="fill:#5b688a;fill-opacity:1;stroke:none;stroke-width:1.12021;stroke-linecap:round;stroke-linejoin:round;paint-order:stroke fill markers"
         d="m 5394.5349,4838.3547 a 1153.5209,1153.5209 0 0 0 -1153.522,1153.5218 1153.5209,1153.5209 0 0 0 149.8436,562.7026 1228.9786,1228.9786 0 0 1 1228.6088,-1223.7933 1228.9786,1228.9786 0 0 1 895.3418,387.3633 1153.5209,1153.5209 0 0 0 -1120.2722,-879.7944 z" />
    </g>
    <g
       id="g29221"
       transform="matrix(0.01631971,0.00101837,0.00346428,0.01160378,5797.485,1709.1039)">
      <circle
         style="fill:#525e7a;fill-opacity:1;stroke:none;stroke-width:1.12021;stroke-linecap:round;stroke-linejoin:round;paint-order:stroke fill markers"
         id="circle29215"
         cx="5394.5347"
         cy="5991.8755"
         r="1153.5209" />
      <path
         id="path29217"
         style="fill:#3e465b;fill-opacity:1;stroke:none;stroke-width:1.12021;stroke-linecap:round;stroke-linejoin:round;paint-order:stroke fill markers"
         d="m 6535.4062,5823.217 c -157.5693,396.557 -470.8283,711.2378 -846.0115,847.5306 -408.5813,148.4254 -1041.7879,66.4234 -1298.908,-116.4332 203.2763,363.9928 587.142,589.9739 1004.0482,591.0818 305.9327,2e-4 599.3353,-121.5308 815.6626,-337.8577 216.3273,-216.3269 337.8589,-509.7293 337.8592,-815.662 -0.084,-56.4537 -4.3122,-112.8249 -12.6505,-168.6595 z"
         sodipodi:nodetypes="caccscc" />
      <path
         id="path29219"
         style="fill:#5b688a;fill-opacity:1;stroke:none;stroke-width:1.12021;stroke-linecap:round;stroke-linejoin:round;paint-order:stroke fill markers"
         d="m 5394.5349,4838.3547 a 1153.5209,1153.5209 0 0 0 -1153.522,1153.5218 1153.5209,1153.5209 0 0 0 149.8436,562.7026 1228.9786,1228.9786 0 0 1 1228.6088,-1223.7933 1228.9786,1228.9786 0 0 1 895.3418,387.3633 1153.5209,1153.5209 0 0 0 -1120.2722,-879.7944 z" />
    </g>
    <g
       id="g29229"
       transform="matrix(0.01239611,-0.00396512,0.00653781,0.00314928,4431.7872,901.26778)">
      <circle
         style="fill:#525e7a;fill-opacity:1;stroke:none;stroke-width:1.12021;stroke-linecap:round;stroke-linejoin:round;paint-order:stroke fill markers"
         id="circle29223"
         cx="5394.5347"
         cy="5991.8755"
         r="1153.5209" />
      <path
         id="path29225"
         style="fill:#3e465b;fill-opacity:1;stroke:none;stroke-width:1.12021;stroke-linecap:round;stroke-linejoin:round;paint-order:stroke fill markers"
         d="m 6535.4062,5823.217 c -157.5693,396.557 -470.8283,711.2378 -846.0115,847.5306 -408.5813,148.4254 -1041.7879,66.4234 -1298.908,-116.4332 203.2763,363.9928 587.142,589.9739 1004.0482,591.0818 305.9327,2e-4 599.3353,-121.5308 815.6626,-337.8577 216.3273,-216.3269 337.8589,-509.7293 337.8592,-815.662 -0.084,-56.4537 -4.3122,-112.8249 -12.6505,-168.6595 z"
         sodipodi:nodetypes="caccscc" />
      <path
         id="path29227"
         style="fill:#5b688a;fill-opacity:1;stroke:none;stroke-width:1.12021;stroke-linecap:round;stroke-linejoin:round;paint-order:stroke fill markers"
         d="m 5394.5349,4838.3547 a 1153.5209,1153.5209 0 0 0 -1153.522,1153.5218 1153.5209,1153.5209 0 0 0 149.8436,562.7026 1228.9786,1228.9786 0 0 1 1228.6088,-1223.7933 1228.9786,1228.9786 0 0 1 895.3418,387.3633 1153.5209,1153.5209 0 0 0 -1120.2722,-879.7944 z" />
    </g>
    <g
       id="g29237"
       transform="matrix(0.01339996,-0.00330246,0.00550419,0.0034914,4407.2618,736.71252)">
      <circle
         style="fill:#525e7a;fill-opacity:1;stroke:none;stroke-width:1.12021;stroke-linecap:round;stroke-linejoin:round;paint-order:stroke fill markers"
         id="circle29231"
         cx="5394.5347"
         cy="5991.8755"
         r="1153.5209" />
      <path
         id="path29233"
         style="fill:#3e465b;fill-opacity:1;stroke:none;stroke-width:1.12021;stroke-linecap:round;stroke-linejoin:round;paint-order:stroke fill markers"
         d="m 6535.4062,5823.217 c -157.5693,396.557 -470.8283,711.2378 -846.0115,847.5306 -408.5813,148.4254 -1041.7879,66.4234 -1298.908,-116.4332 203.2763,363.9928 587.142,589.9739 1004.0482,591.0818 305.9327,2e-4 599.3353,-121.5308 815.6626,-337.8577 216.3273,-216.3269 337.8589,-509.7293 337.8592,-815.662 -0.084,-56.4537 -4.3122,-112.8249 -12.6505,-168.6595 z"
         sodipodi:nodetypes="caccscc" />
      <path
         id="path29235"
         style="fill:#5b688a;fill-opacity:1;stroke:none;stroke-width:1.12021;stroke-linecap:round;stroke-linejoin:round;paint-order:stroke fill markers"
         d="m 5394.5349,4838.3547 a 1153.5209,1153.5209 0 0 0 -1153.522,1153.5218 1153.5209,1153.5209 0 0 0 149.8436,562.7026 1228.9786,1228.9786 0 0 1 1228.6088,-1223.7933 1228.9786,1228.9786 0 0 1 895.3418,387.3633 1153.5209,1153.5209 0 0 0 -1120.2722,-879.7944 z" />
    </g>
  </g>
</svg>
