<?xml version="1.0" encoding="UTF-8" standalone="no"?>
<svg
   sodipodi:docname="discord-white.svg"
   inkscape:version="1.1-beta1 (77e7b44db3, 2021-03-28)"
   id="svg8"
   version="1.1"
   viewBox="0 0 500 500"
   height="500"
   width="500"
   xmlns:inkscape="http://www.inkscape.org/namespaces/inkscape"
   xmlns:sodipodi="http://sodipodi.sourceforge.net/DTD/sodipodi-0.dtd"
   xmlns="http://www.w3.org/2000/svg"
   xmlns:svg="http://www.w3.org/2000/svg"
   xmlns:rdf="http://www.w3.org/1999/02/22-rdf-syntax-ns#"
   xmlns:cc="http://creativecommons.org/ns#"
   xmlns:dc="http://purl.org/dc/elements/1.1/">
  <defs
     id="defs2" />
  <sodipodi:namedview
     inkscape:window-maximized="1"
     inkscape:window-y="1"
     inkscape:window-x="1961"
     inkscape:window-height="1046"
     inkscape:window-width="2519"
     showborder="false"
     units="px"
     showgrid="false"
     inkscape:document-rotation="0"
     inkscape:current-layer="layer1"
     inkscape:document-units="px"
     inkscape:cy="560"
     inkscape:cx="400"
     inkscape:zoom="0.35"
     inkscape:pageshadow="0"
     inkscape:pageopacity="0.0"
     borderopacity="1.0"
     bordercolor="#666666"
     pagecolor="#ffffff"
     id="base"
     objecttolerance="10.0"
     gridtolerance="10.0"
     guidetolerance="10.0"
     inkscape:pagecheckerboard="1"
     fit-margin-top="0"
     fit-margin-left="0"
     fit-margin-right="0"
     fit-margin-bottom="0" />
  <metadata
     id="metadata5">
    <rdf:RDF>
      <cc:Work
         rdf:about="">
        <dc:format>image/svg+xml</dc:format>
        <dc:type
           rdf:resource="http://purl.org/dc/dcmitype/StillImage" />
      </cc:Work>
    </rdf:RDF>
  </metadata>
  <g
     id="layer1"
     inkscape:groupmode="layer"
     inkscape:label="Layer 1">
    <path
       d="m 365.93524,143.63811 c -21.3231,-9.78391 -44.1888,-16.99226 -68.0963,-21.12079 -0.4354,-0.0797 -0.8703,0.11945 -1.0946,0.5177 -2.9408,5.23033 -6.1981,12.05372 -8.4792,17.41687 -25.7141,-3.84967 -51.2963,-3.84967 -76.4831,0 -2.2815,-5.48237 -5.6572,-12.18654 -8.6111,-17.41687 -0.2243,-0.38496 -0.6592,-0.58409 -1.0946,-0.5177 -23.8943,4.11534 -46.7601,11.32369 -68.0963,21.12079 -0.1847,0.0796 -0.343,0.21251 -0.4481,0.38497 -43.371397,64.79603 -55.252697,127.99942 -49.424097,190.41922 0.026,0.30533 0.1978,0.59747 0.4351,0.78313 28.615297,21.01438 56.333997,33.77201 83.537997,42.22809 0.4354,0.13288 0.8967,-0.0264 1.1738,-0.38497 6.4351,-8.7878 12.1715,-18.05387 17.0898,-27.7982 0.2903,-0.57062 0.013,-1.24772 -0.58,-1.47342 -9.0988,-3.45151 -17.7627,-7.65976 -26.0968,-12.43863 -0.6592,-0.38496 -0.7119,-1.32783 -0.1055,-1.77923 1.7538,-1.31417 3.5081,-2.68158 5.1827,-4.06218 0.303,-0.25209 0.7251,-0.30534 1.0814,-0.14607 54.7511,24.9974 114.0256,24.9974 168.1307,0 0.3562,-0.17246 0.7784,-0.11922 1.0946,0.13287 1.6751,1.38061 3.4289,2.76121 5.1958,4.07538 0.6065,0.4514 0.5669,1.39427 -0.092,1.77923 -8.334,4.8717 -16.9979,8.98712 -26.1099,12.42544 -0.5932,0.2257 -0.8571,0.91599 -0.5668,1.48661 5.0239,9.73067 10.7602,18.99673 17.0766,27.78501 0.2639,0.37177 0.7384,0.53104 1.1737,0.39816 27.336,-8.45608 55.0546,-21.21371 83.6698,-42.22809 0.2507,-0.18566 0.409,-0.4646 0.4354,-0.76994 6.9756,-72.16413 -11.6838,-134.8492 -49.4638,-190.41921 -0.092,-0.18566 -0.2502,-0.31853 -0.4349,-0.39817 z m -171.4145,152.79705 c -16.4838,0 -30.0661,-15.1334 -30.0661,-33.71878 0,-18.58538 13.3188,-33.71878 30.0661,-33.71878 16.8787,0 30.3295,15.26628 30.0656,33.71878 0,18.58538 -13.3188,33.71878 -30.0656,33.71878 z m 111.164,0 c -16.4833,0 -30.0655,-15.1334 -30.0655,-33.71878 0,-18.58538 13.3183,-33.71878 30.0655,-33.71878 16.8792,0 30.3295,15.26628 30.0661,33.71878 0,18.58538 -13.1869,33.71878 -30.0661,33.71878 z"
       fill="#ffffff"
       id="path1041"
       style="stroke-width:1" />
  </g>
</svg>
